<svg width="213" height="128" viewBox="0 0 213 128" fill="none" xmlns="http://www.w3.org/2000/svg">
<path d="M21.213 85.2791L42.4262 64.0659L21.213 42.8527L-0.000230551 64.0659L21.213 85.2791ZM169.705 106.492L148.492 127.706L127.279 106.492L148.492 85.2791L169.705 106.492ZM84.8526 21.6395L63.6394 42.8527L42.4262 21.6395L63.6394 0.426298L84.8526 21.6395ZM106.066 85.2791L127.279 64.0659L106.066 42.8527L84.8526 64.0659L106.066 85.2791ZM212.132 64.0659L190.919 85.2791L169.705 64.0659L190.919 42.8527L212.132 64.0659ZM148.492 42.8527L169.705 21.6395L148.492 0.426298L127.279 21.6395L148.492 42.8527Z" fill="#3999BF"/>
</svg>
