<svg width="128" height="213" viewBox="0 0 128 213" fill="none" xmlns="http://www.w3.org/2000/svg">
<path d="M42.8527 21.2132L64.0659 42.4264L85.2791 21.2132L64.0659 3.14713e-05L42.8527 21.2132ZM21.6395 169.706L0.426303 148.492L21.6395 127.279L42.8527 148.492L21.6395 169.706ZM106.492 84.8529L85.2791 63.6396L106.492 42.4264L127.706 63.6396L106.492 84.8529ZM42.8527 106.066L64.0659 127.279L85.2791 106.066L64.0659 84.8529L42.8527 106.066ZM64.0659 212.132L42.8527 190.919L64.0659 169.706L85.2791 190.919L64.0659 212.132ZM85.2791 148.492L106.492 169.706L127.706 148.492L106.492 127.279L85.2791 148.492Z" fill="#3999BF"/>
</svg>
