<svg width="171" height="170" viewBox="0 0 171 170" fill="none" xmlns="http://www.w3.org/2000/svg">
<path d="M42.8527 21.2132L64.0659 42.4264L85.2791 21.2132L64.0659 2.06817e-05L42.8527 21.2132ZM21.6395 169.706L0.426303 148.492L21.6395 127.279L42.8527 148.492L21.6395 169.706ZM106.492 84.8529L85.2791 63.6396L106.492 42.4264L127.706 63.6396L106.492 84.8529ZM42.8527 106.066L64.0659 127.279L85.2791 106.066L64.0659 84.8529L42.8527 106.066ZM21.6395 84.8529L0.426303 63.6396L21.6395 42.4264L42.8527 63.6396L21.6395 84.8529ZM127.706 106.066L148.919 127.279L170.132 106.066L148.919 84.8528L127.706 106.066Z" fill="#3999BF"/>
</svg>
